<svg xmlns:rdf="http://www.w3.org/1999/02/22-rdf-syntax-ns#" xmlns="http://www.w3.org/2000/svg" height="3.1574mm" width="4.4265mm" version="1.1" xmlns:cc="http://creativecommons.org/ns#" xmlns:dc="http://purl.org/dc/elements/1.1/" viewBox="0 0 15.684571 11.18764">
 <g transform="translate(-8.0383 -11.21)">
  <path style="color:#000000;text-transform:none;text-indent:0" d="m13.307 16.374c-1.261-1.298-2.686-1.533-3.8643-1.915-1.055-0.342-1.6555-1.294-1.3034-2.167 0.34802-0.86278 1.5837-1.2311 2.6125-1.0262 1.0431 0.20768 1.8483 0.91053 1.6594 1.8868-0.0687 0.35497-0.27153 0.61986-0.41343 0.73633-0.12034 0.09877-0.24398 0.1783-0.37985 0.25664 0.28824 0.21246 0.63987 0.36886 0.91958 0.48887 0.59546 0.25552 1.4727 0.61592 2.4805 1.1965 1.823-1.0362 4.1917-2.3783 5.5008-3.1201 1.3092-0.74191 2.6491-0.36768 3.204-0.0276l-7.021 4.121 7.021 4.121c-0.55484 0.34009-1.8947 0.71432-3.204-0.0276-1.3091-0.74186-3.6778-2.0839-5.5008-3.1201-1.0079 0.58058-1.885 0.941-2.4805 1.1965-0.27971 0.12002-0.63133 0.27641-0.91958 0.48888 0.13587 0.07834 0.2595 0.15787 0.37985 0.25664 0.14191 0.11647 0.34473 0.38136 0.41343 0.73633 0.18895 0.9763-0.61629 1.6791-1.6594 1.8868-1.029 0.205-2.2648-0.163-2.6127-1.026-0.3521-0.873 0.2484-1.826 1.3034-2.167 1.1783-0.382 2.6033-0.618 3.8643-1.915 0.14088-0.14493 0.28327-0.28839 0.42492-0.43023-0.14164-0.14183-0.28403-0.2853-0.42492-0.43023zm-4.134-3.001c0.25021 0.30906 0.6793 0.53997 1.1714 0.54305 0.55097 0.0034 0.90852-0.25776 1.0565-0.60745 0.14797-0.34968 0.0763-0.77706-0.31007-1.0861-0.25759-0.20602-0.66871-0.32193-1.0565-0.30373-0.38784 0.0182-0.72356 0.1718-0.92445 0.44639-0.24863 0.33985-0.18702 0.69877 0.063179 1.0078zm-0.063179 7.869c0.20088 0.27459 0.53661 0.42819 0.92445 0.44639 0.3878 0.0182 0.79892-0.09771 1.0565-0.30373 0.38636-0.30902 0.45804-0.7364 0.31007-1.0861-0.14798-0.34969-0.50552-0.6109-1.0565-0.60745-0.49205 0.0031-0.92114 0.23399-1.1714 0.54305-0.2502 0.30904-0.31181 0.66796-0.063179 1.0078z"/>
 </g>
</svg>